<svg id="Calque_1" data-name="Calque 1" xmlns="http://www.w3.org/2000/svg" xmlns:xlink="http://www.w3.org/1999/xlink" viewBox="0 0 89.76 144.23"><defs><style>.cls-1{fill:#6dbe45;}.cls-2{clip-path:url(#clip-path);}</style><clipPath id="clip-path" transform="translate(-566.1 -668)"><path class="cls-1" d="M572,668a6.73,6.73,0,0,0-4.25,1.3,3.82,3.82,0,0,0-1.68,3.09,3.66,3.66,0,0,0,1.93,3.15,10,10,0,0,0,5.48,1.25c3.5,0,5.9.45,7.22,1.33s2.19,3.06,2.62,6.51a181.89,181.89,0,0,1,.64,18.89v90.24a8.5,8.5,0,0,1-1.73,5.33q-1.72,2.26-7,3.5c-3.49.82-5.58,1.57-6.27,2.23a3.13,3.13,0,0,0-1,2.3q0,5.1,6.12,5.1a40,40,0,0,0,7.79-1.63A60.56,60.56,0,0,1,597.28,809a41,41,0,0,1,10.9,1.53,36,36,0,0,0,7.55,1.54q4,0,4-3.41a5,5,0,0,0-1.24-3.35c-.82-1-3.23-2-7.21-3.18s-6.63-2.69-7.91-4.64a11.91,11.91,0,0,1-1.93-6.76V731.85a5.47,5.47,0,0,1,1.69-4.35c1.12-1,3.33-1.48,6.63-1.48h26.26q8.52,0,8.52,7.12a7.91,7.91,0,0,0,1.24,4.7,3.56,3.56,0,0,0,5.83.4,5.21,5.21,0,0,0,1.14-3.5c0-.59-.17-2.27-.5-5a66.51,66.51,0,0,1-.49-7.89q0-2.46.29-6.35t.3-6a4.67,4.67,0,0,0-1.19-3.4,4,4,0,0,0-5.53-.24,3.42,3.42,0,0,0-1.09,2.67,11,11,0,0,1-1.68,6.07,5.44,5.44,0,0,1-4.86,2.62H611.7c-4.82,0-7.86-.91-9.12-2.75s-1.88-5-1.88-9.37V684.29a7.31,7.31,0,0,1,2.18-5.77q2.18-1.92,9.21-1.92h27.15a5.5,5.5,0,0,1,3.61,1.37c1.09.92,2.18,2.89,3.27,5.94s2,4.91,2.67,5.6a3.15,3.15,0,0,0,2.23,1c3.22,0,4.84-2,4.84-5.93a29,29,0,0,0-.54-4.89c-.37-2-.71-4.12-1-6.33s-.79-3.65-1.38-4.35-2.18-1-4.75-1Z"/></clipPath></defs><title>f</title><path class="cls-1" d="M572,668a6.73,6.73,0,0,0-4.25,1.3,3.82,3.82,0,0,0-1.68,3.09,3.66,3.66,0,0,0,1.93,3.15,10,10,0,0,0,5.48,1.25c3.5,0,5.9.45,7.22,1.33s2.19,3.06,2.62,6.51a181.89,181.89,0,0,1,.64,18.89v90.24a8.5,8.5,0,0,1-1.73,5.33q-1.72,2.26-7,3.5c-3.49.82-5.58,1.57-6.27,2.23a3.13,3.13,0,0,0-1,2.3q0,5.1,6.12,5.1a40,40,0,0,0,7.79-1.63A60.56,60.56,0,0,1,597.28,809a41,41,0,0,1,10.9,1.53,36,36,0,0,0,7.55,1.54q4,0,4-3.41a5,5,0,0,0-1.24-3.35c-.82-1-3.23-2-7.21-3.18s-6.63-2.69-7.91-4.64a11.91,11.91,0,0,1-1.93-6.76V731.85a5.47,5.47,0,0,1,1.69-4.35c1.12-1,3.33-1.48,6.63-1.48h26.26q8.52,0,8.52,7.12a7.91,7.91,0,0,0,1.24,4.7,3.56,3.56,0,0,0,5.83.4,5.21,5.21,0,0,0,1.14-3.5c0-.59-.17-2.27-.5-5a66.51,66.51,0,0,1-.49-7.89q0-2.46.29-6.35t.3-6a4.67,4.67,0,0,0-1.19-3.4,4,4,0,0,0-5.53-.24,3.42,3.42,0,0,0-1.09,2.67,11,11,0,0,1-1.68,6.07,5.44,5.44,0,0,1-4.86,2.62H611.7c-4.82,0-7.86-.91-9.12-2.75s-1.88-5-1.88-9.37V684.29a7.31,7.31,0,0,1,2.18-5.77q2.18-1.92,9.21-1.92h27.15a5.5,5.5,0,0,1,3.61,1.37c1.09.92,2.18,2.89,3.27,5.94s2,4.91,2.67,5.6a3.15,3.15,0,0,0,2.23,1c3.22,0,4.84-2,4.84-5.93a29,29,0,0,0-.54-4.89c-.37-2-.71-4.12-1-6.33s-.79-3.65-1.38-4.35-2.18-1-4.75-1Z" transform="translate(-566.1 -668)"/><g class="cls-2"><rect class="cls-1" width="89.76" height="144.23"/></g></svg>