<svg id="Calque_1" data-name="Calque 1" xmlns="http://www.w3.org/2000/svg" xmlns:xlink="http://www.w3.org/1999/xlink" viewBox="0 0 1184.38 179.57"><defs><style>.cls-1{fill:none;}.cls-2{clip-path:url(#clip-path);}.cls-3{fill:url(#Dégradé_sans_nom_4);}.cls-4{clip-path:url(#clip-path-2);}.cls-5{fill:url(#Dégradé_sans_nom_5);}.cls-6{clip-path:url(#clip-path-3);}.cls-7{fill:url(#Dégradé_sans_nom_6);}.cls-8{clip-path:url(#clip-path-4);}.cls-9{fill:url(#Dégradé_sans_nom_7);}.cls-10{clip-path:url(#clip-path-5);}.cls-11{fill:url(#Dégradé_sans_nom_8);}.cls-12{clip-path:url(#clip-path-6);}.cls-13{fill:url(#Dégradé_sans_nom_9);}.cls-14{clip-path:url(#clip-path-7);}.cls-15{clip-path:url(#clip-path-8);}.cls-16{clip-path:url(#clip-path-9);}.cls-17{fill:url(#Dégradé_sans_nom_12);}.cls-18{clip-path:url(#clip-path-10);}.cls-19{fill:url(#Dégradé_sans_nom_13);}.cls-20{clip-path:url(#clip-path-11);}.cls-21{fill:url(#Dégradé_sans_nom_14);}.cls-22{clip-path:url(#clip-path-12);}.cls-23{clip-path:url(#clip-path-13);}.cls-24{clip-path:url(#clip-path-14);}.cls-25{fill:url(#Dégradé_sans_nom_17);}</style><clipPath id="clip-path" transform="translate(-57.81 -985.29)"><path class="cls-1" d="M63.74,985.29a6.73,6.73,0,0,0-4.25,1.3,3.82,3.82,0,0,0-1.68,3.09,3.66,3.66,0,0,0,1.93,3.15,10,10,0,0,0,5.48,1.25c3.49,0,5.9.45,7.22,1.33s2.19,3.06,2.62,6.51a181.89,181.89,0,0,1,.64,18.89v90.24a8.56,8.56,0,0,1-1.73,5.33c-1.15,1.51-3.48,2.68-7,3.5s-5.58,1.57-6.28,2.23a3.11,3.11,0,0,0-1,2.3c0,3.4,2,5.1,6.11,5.1a40,40,0,0,0,7.8-1.63A60.11,60.11,0,0,1,89,1126.25a41,41,0,0,1,10.9,1.53,36,36,0,0,0,7.55,1.54q4.05,0,4-3.41a5.05,5.05,0,0,0-1.24-3.35q-1.23-1.44-7.22-3.18t-7.9-4.64A11.91,11.91,0,0,1,93.2,1108v-58.84a5.5,5.5,0,0,1,1.68-4.35c1.12-1,3.34-1.48,6.64-1.48h26.26q8.52,0,8.52,7.12a8,8,0,0,0,1.23,4.7,3.64,3.64,0,0,0,3,1.73,3.59,3.59,0,0,0,2.82-1.33,5.26,5.26,0,0,0,1.13-3.5c0-.59-.16-2.27-.49-5a66.6,66.6,0,0,1-.5-7.89q0-2.46.3-6.35t.3-6a4.71,4.71,0,0,0-1.19-3.4,3.84,3.84,0,0,0-2.87-1.23,3.8,3.8,0,0,0-2.66,1,3.42,3.42,0,0,0-1.09,2.67,10.91,10.91,0,0,1-1.69,6.07,5.42,5.42,0,0,1-4.85,2.62H103.4c-4.82,0-7.86-.91-9.11-2.75s-1.88-5-1.88-9.37v-20.81c0-2.56.72-4.49,2.18-5.77s4.52-1.92,9.21-1.92h27.14a5.53,5.53,0,0,1,3.62,1.37c1.09.92,2.18,2.89,3.27,5.94s2,4.91,2.67,5.6a3.13,3.13,0,0,0,2.22,1c3.23,0,4.85-2,4.85-5.93A28.18,28.18,0,0,0,147,997c-.36-2-.71-4.12-1-6.33s-.79-3.65-1.39-4.35-2.17-1-4.74-1Z"/></clipPath><linearGradient id="Dégradé_sans_nom_4" y1="1299.97" x2="1" y2="1299.97" gradientTransform="matrix(-401.2, 0, 0, 401.2, 393.89, -521472.43)" gradientUnits="userSpaceOnUse"><stop offset="0" stop-color="#50b848"/><stop offset="0.23" stop-color="#44ab45"/><stop offset="0.67" stop-color="#23883f"/><stop offset="1" stop-color="#066939"/></linearGradient><clipPath id="clip-path-2" transform="translate(-57.81 -985.29)"><path class="cls-1" d="M174.6,1059.52q-8.83,3.38-8.84,8.21a3.79,3.79,0,0,0,1.67,3.21,6.61,6.61,0,0,0,4,1.24c.65,0,1.9-.63,3.74-1.88a29.58,29.58,0,0,1,16.67-5.44q6.71,0,10.7,3.76a12.84,12.84,0,0,1,4,9.79v26.79a15.21,15.21,0,0,1-6.08,12.65,21.13,21.13,0,0,1-13.29,4.74,21.83,21.83,0,0,1-14.14-5q-6.12-5-6.13-14.25,0-8,5.34-12.77a19.39,19.39,0,0,1,13.45-4.78,17.73,17.73,0,0,1,7.7,1.78q3.76,1.79,5,1.78a5.45,5.45,0,0,0,3.16-.89,2.74,2.74,0,0,0,1.29-2.37q0-3.07-6.27-6a27.59,27.59,0,0,0-11.5-2.91q-15.48,0-25.3,7.91T150,1103.32q0,9.69,4.55,16.26a27.09,27.09,0,0,0,12.11,9.74,36.05,36.05,0,0,0,13.69,3.16,45,45,0,0,0,24.12-6.92,3.57,3.57,0,0,1,1.78-.69c.66,0,1,.53,1,1.58a2.67,2.67,0,0,0,1.34,2,4.5,4.5,0,0,0,2.72,1,23.39,23.39,0,0,0,4.64-.88,23.62,23.62,0,0,1,5.74-.89,20.29,20.29,0,0,1,5.19.89,20.36,20.36,0,0,0,5.09.88,6.09,6.09,0,0,0,3.31-1,2.68,2.68,0,0,0,1.53-2.25c0-1.66-.38-2.8-1.13-3.4a10.71,10.71,0,0,0-3.51-1.6q-9.49-2.76-9.49-9.87v-33.16q0-9-7.91-15.5t-20.86-6.52a54.24,54.24,0,0,0-19.33,3.36"/></clipPath><linearGradient id="Dégradé_sans_nom_5" y1="1300.06" y2="1300.06" xlink:href="#Dégradé_sans_nom_4"/><clipPath id="clip-path-3" transform="translate(-57.81 -985.29)"><path class="cls-1" d="M286.18,1060.32q-4.06,3.95-8.22,13.34t-4.65,9.39l-.4-2.77v-4.84q0-11.37-5.35-11.37a31.16,31.16,0,0,0-5.31.4,21.41,21.41,0,0,1-3.23.39,30.7,30.7,0,0,1-4.21-.49,30.65,30.65,0,0,0-4.32-.49q-4.67,0-4.66,3.31a3.05,3.05,0,0,0,.74,2c.49.6,2.08,1.31,4.74,2.13s4.45,2,5.34,3.49a9.87,9.87,0,0,1,1.34,5.11v30q0,7.77-1,9.24c-.66,1-2.44,2-5.34,2.95s-4.66,1.79-5.29,2.43a3,3,0,0,0-.94,2.15,3.08,3.08,0,0,0,1.69,2.66,8.34,8.34,0,0,0,4.46,1.05,29.62,29.62,0,0,0,4.95-.89,34.14,34.14,0,0,1,7.63-.89,59.37,59.37,0,0,1,10.55.89,45.4,45.4,0,0,0,7.69.89q3.47,0,3.46-2.91a3.75,3.75,0,0,0-1.28-2.8c-.86-.81-2.74-1.55-5.64-2.24s-4.73-1.54-5.48-2.55-1.14-2.94-1.14-5.76q0-9,5.6-22.71a55,55,0,0,1,18.21-23.2,23.75,23.75,0,0,0,4.16-3.84,6.63,6.63,0,0,0,1.19-4.14,3.33,3.33,0,0,0-1.74-2.69,9,9,0,0,0-5.11-1.2q-4.38,0-8.45,4"/></clipPath><linearGradient id="Dégradé_sans_nom_6" y1="1300.06" y2="1300.06" xlink:href="#Dégradé_sans_nom_4"/><clipPath id="clip-path-4" transform="translate(-57.81 -985.29)"><path class="cls-1" d="M309.59,1065.31q0,3.7,5.93,3.7a6.18,6.18,0,0,1,4.1,2,7.15,7.15,0,0,1,2.13,5.52v32.27a45.24,45.24,0,0,1-.45,8.09,5.23,5.23,0,0,1-2.17,3.21,9.8,9.8,0,0,1-4.5,1.58,8.72,8.72,0,0,0-3.81,1.09c-.69.5-1,1.56-1,3.16q0,3.21,5.55,3.21a42.59,42.59,0,0,0,6.49-.74,43.48,43.48,0,0,1,7.28-.74,37.89,37.89,0,0,1,7.43.74,38.77,38.77,0,0,0,7.44.74q5.06,0,5-3.51,0-2.1-1.14-2.76a10.1,10.1,0,0,0-3.6-.95,10.9,10.9,0,0,1-4.3-1.38,5.89,5.89,0,0,1-2.38-2.23c-.36-.75-.54-2.65-.54-5.68l.2-17.2q0-12.56-.4-22t-1.29-10.83c-.6-.89-1.78-1.33-3.57-1.33a18,18,0,0,0-3.42.59,21.85,21.85,0,0,1-4.91.59,28.6,28.6,0,0,1-5.21-.69,29.05,29.05,0,0,0-4.61-.69q-4.28,0-4.27,4.3m84.52,1.09q-8.7,6.76-8.7,11.22a2.18,2.18,0,0,0,.94,1.73,3.31,3.31,0,0,0,2.11.74q1.88,0,7.64-4.5t9.7-4.5a6.56,6.56,0,0,1,4.18,1.53,4.59,4.59,0,0,1,1.92,3.7v38a8,8,0,0,1-1.48,4.93q-1.49,2-6.08,2.42c-3.06.29-4.6,1.48-4.6,3.55a3.71,3.71,0,0,0,1.34,3,4.62,4.62,0,0,0,3.12,1.16,43.4,43.4,0,0,0,7.19-.75,47.66,47.66,0,0,1,8-.74,75.07,75.07,0,0,1,8.91.65c3.51.42,5.49.64,6,.64q4.86,0,4.86-3.71a3.61,3.61,0,0,0-.74-2.26c-.5-.63-1.9-1.18-4.21-1.64a10.33,10.33,0,0,1-5.14-2.28,6.2,6.2,0,0,1-1.68-4.74l.2-16.81q0-26.58-1.38-29.26-3.86-8.79-14.34-8.8-9,0-17.69,6.78m-44.14-.3q-9.24,6.68-9.24,11.71c0,1.52.85,2.28,2.56,2.28q1.77,0,5.71-3.43,6.69-5.57,11.62-5.57a6.56,6.56,0,0,1,4.18,1.53,4.57,4.57,0,0,1,1.93,3.7v38a7,7,0,0,1-2.77,6.06,9.87,9.87,0,0,1-5.93,2q-3.46,0-3.46,2.8a3.7,3.7,0,0,0,1.34,3,4.62,4.62,0,0,0,3.11,1.16,38.6,38.6,0,0,0,5.26-.75,57.38,57.38,0,0,1,10-.74,75.93,75.93,0,0,1,8.87.65c3.53.42,5.5.64,5.9.64,3.49,0,5.25-1.17,5.25-3.51q0-4-5.05-4a7,7,0,0,1-7-7.12l.19-39.94a14.2,14.2,0,0,0-4.74-10.63,15.62,15.62,0,0,0-11.07-4.49q-7.42,0-16.66,6.67"/></clipPath><linearGradient id="Dégradé_sans_nom_7" y1="1300.06" y2="1300.06" xlink:href="#Dégradé_sans_nom_4"/><clipPath id="clip-path-5" transform="translate(-57.81 -985.29)"><path class="cls-1" d="M574.91,1022.29a16,16,0,0,1-3.13.39,34.08,34.08,0,0,1-3.86-.31,33.71,33.71,0,0,0-3.63-.31,7.34,7.34,0,0,0-4.36,1.47c-1.36,1-3,3.32-4.9,7q-9.59,18.86-33.44,63.67c-.57,1.14-1,1.7-1.39,1.7s-.77-.61-1.39-1.85l-14.69-29.44-17.55-35.39a35,35,0,0,0-3.14-5.88,3.59,3.59,0,0,0-3-1.47,14,14,0,0,0-3.64.66,13.65,13.65,0,0,1-3.71.66,15.39,15.39,0,0,1-3.87-.66,16.15,16.15,0,0,0-4-.66,5.74,5.74,0,0,0-3.05.93,2.57,2.57,0,0,0-1.51,2.09,3.55,3.55,0,0,0,1.16,2.7c.77.73,2.39,1.25,4.87,1.59a8.87,8.87,0,0,1,5.71,2.77,8,8,0,0,1,2,5.44v80.7q0,8.88-7.58,8.88a8.25,8.25,0,0,0-4.21,1,3,3,0,0,0-1.81,2.46,3.57,3.57,0,0,0,1.54,2.69,6.06,6.06,0,0,0,4,1.29,31.7,31.7,0,0,0,5.76-.89,31.86,31.86,0,0,1,6.37-.89,38.19,38.19,0,0,1,6.07.81,42.21,42.21,0,0,0,5.21.82q5.64,0,5.64-3.36,0-3.68-6.49-3.68a7.91,7.91,0,0,1-4.79-1.89,5.73,5.73,0,0,1-2.47-4.74v-65.39c0-2.67.13-4,.39-4s1.13,1.34,2.47,4l28.85,57.11c1,2,2.2,3,3.49,3a2.33,2.33,0,0,0,1.7-.54,5.32,5.32,0,0,0,1-1.39q.44-.86,6.56-12.24t13.62-26l12-23.38q2.05-4.1,2.61-4.1c.27,0,.4,1.42.4,4.25v66.24c0,3.7-.48,6.06-1.43,7.06s-3.31,1.71-7.07,2.12a9.9,9.9,0,0,0-3.4.81,2.44,2.44,0,0,0-1.08,2.36c0,2.42,1.64,3.63,4.94,3.63a69,69,0,0,0,7.94-.73,70,70,0,0,1,7.71-.74,56.06,56.06,0,0,1,8.1.74,53.79,53.79,0,0,0,6.55.73,5.4,5.4,0,0,0,3.44-1,3,3,0,0,0,1.19-2.36,3.19,3.19,0,0,0-.85-2.24c-.57-.62-2.33-1.22-5.29-1.82s-4.93-1.69-5.91-3.31a10.61,10.61,0,0,1-1.47-5.6v-79.16c0-2.62.18-4.28.54-5a16.65,16.65,0,0,1,3-3.4,8.18,8.18,0,0,1,5.8-2.35q4,0,4-2.74c0-2.24-1.4-3.37-4.17-3.37a18.85,18.85,0,0,0-2.36.39"/></clipPath><linearGradient id="Dégradé_sans_nom_8" y1="1300.08" x2="1" y2="1300.08" gradientTransform="translate(1206.38 967638.58) rotate(180) scale(806.24 744.22)" gradientUnits="userSpaceOnUse"><stop offset="0" stop-color="#929497"/><stop offset="1" stop-color="#27aae2"/></linearGradient><clipPath id="clip-path-6" transform="translate(-57.81 -985.29)"><path class="cls-1" d="M603.42,1079.78c-4.61,1.76-6.91,3.89-6.91,6.42a3,3,0,0,0,1.31,2.51,5.18,5.18,0,0,0,3.16,1,7.1,7.1,0,0,0,2.92-1.46,23,23,0,0,1,13-4.25,11.75,11.75,0,0,1,8.37,2.93,10,10,0,0,1,3.12,7.65v20.94a11.9,11.9,0,0,1-4.75,9.89,16.51,16.51,0,0,1-10.4,3.71,17,17,0,0,1-11-3.89q-4.79-3.89-4.79-11.14a12.77,12.77,0,0,1,4.17-10,15.19,15.19,0,0,1,10.51-3.73,13.92,13.92,0,0,1,6,1.39,12.38,12.38,0,0,0,3.94,1.39,4.18,4.18,0,0,0,2.47-.7,2.15,2.15,0,0,0,1-1.85q0-2.4-4.9-4.68a21.62,21.62,0,0,0-9-2.27q-12.1,0-19.78,6.18T584.22,1114a21.84,21.84,0,0,0,3.55,12.72,21.26,21.26,0,0,0,9.47,7.61,28.24,28.24,0,0,0,10.7,2.47,35.1,35.1,0,0,0,18.85-5.41,2.86,2.86,0,0,1,1.4-.54c.51,0,.77.41.77,1.24a2.08,2.08,0,0,0,1,1.54,3.53,3.53,0,0,0,2.13.77,18.45,18.45,0,0,0,3.63-.69,18.93,18.93,0,0,1,4.48-.7,16.29,16.29,0,0,1,4.06.7,16,16,0,0,0,4,.69,4.89,4.89,0,0,0,2.59-.74,2.1,2.1,0,0,0,1.19-1.76,3.23,3.23,0,0,0-.89-2.66,8.29,8.29,0,0,0-2.74-1.25q-7.41-2.16-7.42-7.71v-25.93q0-7-6.18-12.11t-16.3-5.09a42.25,42.25,0,0,0-15.11,2.62"/></clipPath><linearGradient id="Dégradé_sans_nom_9" y1="1300.04" y2="1300.04" xlink:href="#Dégradé_sans_nom_8"/><clipPath id="clip-path-7" transform="translate(-57.81 -985.29)"><path class="cls-1" d="M660.49,1081.38a2.92,2.92,0,0,0-1.24,2.15q0,2.6,3.55,3.21t4.68,2a6.84,6.84,0,0,1,1.12,4.28v25.22a22.11,22.11,0,0,1-.46,5.71,9.5,9.5,0,0,1-2.24,3.24c-.42.41-1.5.67-3.25.77-1.55.1-2.55.42-3,.94a2.92,2.92,0,0,0-.7,2q0,2.89,3.95,2.89a53.12,53.12,0,0,0,5.46-.42,53.27,53.27,0,0,1,6-.43,35.08,35.08,0,0,1,5.81.5,33.5,33.5,0,0,0,5.73.51c2.68,0,4-.87,4-2.59a3.13,3.13,0,0,0-.62-1.92,4.86,4.86,0,0,0-2.86-1.29,11.87,11.87,0,0,1-3.67-1.31,3.42,3.42,0,0,1-2.2-4.33l.46-22q0-7.26-.15-13.68a14.73,14.73,0,0,0-.7-5.14,2.21,2.21,0,0,0-2.17-1.27,35.75,35.75,0,0,0-3.84.46,35,35,0,0,1-3.92.46,14.51,14.51,0,0,1-3.53-.54,14.38,14.38,0,0,0-3-.54,4.88,4.88,0,0,0-3.26,1.06m29.88,3.73q-7.08,5.57-7.09,8.31a2.35,2.35,0,0,0,.77,1.65,2.12,2.12,0,0,0,1.38.79q1.85,0,6.25-3.64t6.79-3.63q5.52,0,5.52,6c0,.36-.08,2-.23,5s-.23,10.63-.23,23a5,5,0,0,1-1.94,4.28,7.14,7.14,0,0,1-4.4,1.43,3.39,3.39,0,0,0-2.32.9,2.58,2.58,0,0,0-1,1.92,2.8,2.8,0,0,0,1.2,2.27,4.15,4.15,0,0,0,2.59.94,31.83,31.83,0,0,0,4.11-.58,44.22,44.22,0,0,1,7.82-.58q2.79,0,6.9.27t4.65.27c1.91,0,2.86-.82,2.86-2.44,0-1.21-1-2-2.89-2.47a8.91,8.91,0,0,1-4-1.7c-.75-.69-1.12-2.15-1.12-4.36v-22.34l.07-4.94a30.84,30.84,0,0,0-1-8.73,9.71,9.71,0,0,0-3.89-5.14,11.8,11.8,0,0,0-6.94-2q-6.78,0-13.88,5.56"/></clipPath><clipPath id="clip-path-8" transform="translate(-57.81 -985.29)"><path class="cls-1" d="M750.47,1079.78c-4.61,1.76-6.92,3.89-6.92,6.42a3,3,0,0,0,1.31,2.51,5.23,5.23,0,0,0,3.17,1,7.1,7.1,0,0,0,2.92-1.46,23,23,0,0,1,13-4.25,11.76,11.76,0,0,1,8.37,2.93,10,10,0,0,1,3.12,7.65v20.94a11.93,11.93,0,0,1-4.75,9.89,16.51,16.51,0,0,1-10.4,3.71,17,17,0,0,1-11.05-3.89q-4.78-3.89-4.79-11.14a12.77,12.77,0,0,1,4.17-10,15.17,15.17,0,0,1,10.51-3.73,13.92,13.92,0,0,1,6,1.39,12.38,12.38,0,0,0,3.94,1.39,4.18,4.18,0,0,0,2.47-.7,2.15,2.15,0,0,0,1-1.85c0-1.6-1.64-3.16-4.9-4.68a21.62,21.62,0,0,0-9-2.27q-12.11,0-19.78,6.18T731.27,1114a21.84,21.84,0,0,0,3.55,12.72,21.26,21.26,0,0,0,9.47,7.61,28.24,28.24,0,0,0,10.7,2.47,35.1,35.1,0,0,0,18.85-5.41,2.82,2.82,0,0,1,1.4-.54c.51,0,.77.41.77,1.24a2.08,2.08,0,0,0,1,1.54,3.53,3.53,0,0,0,2.13.77,18.58,18.58,0,0,0,3.63-.69,18.85,18.85,0,0,1,4.48-.7,16.29,16.29,0,0,1,4.06.7,16,16,0,0,0,4,.69,4.83,4.83,0,0,0,2.58-.74,2.1,2.1,0,0,0,1.2-1.76,3.23,3.23,0,0,0-.89-2.66,8.29,8.29,0,0,0-2.74-1.25q-7.43-2.16-7.42-7.71v-25.93q0-7-6.18-12.11t-16.3-5.09a42.22,42.22,0,0,0-15.11,2.62"/></clipPath><clipPath id="clip-path-9" transform="translate(-57.81 -985.29)"><path class="cls-1" d="M822,1152.62a18.06,18.06,0,0,1-7.24-14.94q0-9.65,6.12-15.25t17.22-5.59q10.15,0,16.82,5.56t6.67,15a18.91,18.91,0,0,1-6.82,15.13q-6.82,5.79-16.83,5.79a25.25,25.25,0,0,1-15.94-5.67M841,1085.19q.15-.69.69-.69a13.36,13.36,0,0,1,4.27,1.5,12.53,12.53,0,0,1,5.19,4.56,11.22,11.22,0,0,1,2,6.21,13.44,13.44,0,0,1-4.19,9.92,14,14,0,0,1-10.19,4.13,15.66,15.66,0,0,1-10.38-3.82,11.75,11.75,0,0,1-4.53-9.3,13.64,13.64,0,0,1,1.81-7,11.12,11.12,0,0,1,4.38-4.48,9.61,9.61,0,0,1,3.65-1.35c.46,0,.69.29.69.85,0,2,.9,3,2.69,3,2,0,3.3-1.19,3.92-3.56m8-21.75q-3.09.87-6.91,5.3a33.42,33.42,0,0,0-5.44,8.11,2.17,2.17,0,0,1-1.78,1.23q-10.05,1.25-16.59,6.14t-6.53,12.39a17,17,0,0,0,2.21,8.53,17.48,17.48,0,0,0,6.11,6.3l.62.77-.46.54a30.34,30.34,0,0,0-12.8,9.82,22.77,22.77,0,0,0-4.88,13.92q0,12.67,10.4,20.52t25.23,7.85q14.45,0,25.11-7.62t10.66-19.52a25.09,25.09,0,0,0-4.73-14.61,31.51,31.51,0,0,0-12.4-10.52l-.23-.3.54-.7q7.62-5.33,7.63-13.74a17.47,17.47,0,0,0-5.5-13.2q-5.49-5.25-14.78-6.41c-.67,0-1-.26-1-.78s.85-1.39,2.55-2.78a9.71,9.71,0,0,1,6.35-2.08,9.82,9.82,0,0,1,1.93.23,10.56,10.56,0,0,0,1.93.23,9,9,0,0,0,5.58-1.65,5.19,5.19,0,0,0,2.16-4.33q0-4.53-4.4-4.53-7.49,0-10.58.89"/></clipPath><linearGradient id="Dégradé_sans_nom_12" y1="1300.03" y2="1300.03" xlink:href="#Dégradé_sans_nom_8"/><clipPath id="clip-path-10" transform="translate(-57.81 -985.29)"><path class="cls-1" d="M890,1086q-10,8.2-10,19.71a29.64,29.64,0,0,0,9.12,21.71,30.54,30.54,0,0,0,22.48,9.12,40.82,40.82,0,0,0,17.58-4q8.55-4,8.54-6.84a2.63,2.63,0,0,0-.81-2,3,3,0,0,0-2.2-.78,11.8,11.8,0,0,0-3.93,1.62q-7.87,4.26-14.66,4.25a23.51,23.51,0,0,1-16.16-6.51q-7.21-6.52-7.21-14.7,0-11.19,6.84-17.28t13.25-6.09q9.27,0,13.87,5.13a16.34,16.34,0,0,1,4.6,11,3.1,3.1,0,0,1-.62,2.22,3.44,3.44,0,0,1-2.4.62H903.59c-3,0-4.49,1-4.49,3s1.44,3.21,4.32,3.21h35.41a12.2,12.2,0,0,0,4.55-.58c.83-.39,1.24-1.41,1.24-3.06a27.38,27.38,0,0,0-8-19.78q-8-8.26-24.19-8.27A34.52,34.52,0,0,0,890,1086"/></clipPath><linearGradient id="Dégradé_sans_nom_13" y1="1300.04" y2="1300.04" xlink:href="#Dégradé_sans_nom_8"/><clipPath id="clip-path-11" transform="translate(-57.81 -985.29)"><path class="cls-1" d="M951.42,1084.31q0,2.89,4.63,2.89a4.89,4.89,0,0,1,3.21,1.54,5.6,5.6,0,0,1,1.66,4.32v25.22a36,36,0,0,1-.35,6.33,4.13,4.13,0,0,1-1.7,2.51,7.6,7.6,0,0,1-3.51,1.23,6.88,6.88,0,0,0-3,.86,2.92,2.92,0,0,0-.81,2.46c0,1.68,1.45,2.51,4.34,2.51a32.33,32.33,0,0,0,5.07-.58,35.35,35.35,0,0,1,5.7-.58,30.6,30.6,0,0,1,5.81.58,29.73,29.73,0,0,0,5.81.58q3.94,0,4-2.74a2.29,2.29,0,0,0-.89-2.16,7.91,7.91,0,0,0-2.82-.74,8.32,8.32,0,0,1-3.36-1.08,4.58,4.58,0,0,1-1.86-1.74,13.67,13.67,0,0,1-.42-4.44l.15-13.45q0-9.81-.31-17.23c-.2-4.95-.54-7.76-1-8.46s-1.39-1-2.79-1a14.42,14.42,0,0,0-2.67.46,16.76,16.76,0,0,1-3.84.46,22.37,22.37,0,0,1-4.07-.54,22.81,22.81,0,0,0-3.61-.54q-3.33,0-3.33,3.37m66.06.84q-6.79,5.3-6.8,8.77a1.69,1.69,0,0,0,.73,1.35,2.59,2.59,0,0,0,1.66.59c1,0,3-1.18,6-3.52s5.53-3.52,7.58-3.52a5.12,5.12,0,0,1,3.27,1.2,3.59,3.59,0,0,1,1.5,2.89v29.69a6.19,6.19,0,0,1-1.16,3.86q-1.15,1.55-4.75,1.89t-3.59,2.78a2.89,2.89,0,0,0,1,2.3,3.59,3.59,0,0,0,2.44.91,35,35,0,0,0,5.62-.58,36.59,36.59,0,0,1,6.24-.58,57.75,57.75,0,0,1,7,.5c2.74.33,4.28.5,4.65.5q3.8,0,3.79-2.9a2.74,2.74,0,0,0-.58-1.76c-.38-.5-1.48-.93-3.28-1.29a8.13,8.13,0,0,1-4-1.77,4.89,4.89,0,0,1-1.31-3.71l.15-13.14q0-20.79-1.08-22.87-3-6.88-11.21-6.88-7,0-13.83,5.29m-34.5-.23q-7.23,5.22-7.22,9.16c0,1.18.66,1.78,2,1.78.92,0,2.41-.9,4.46-2.68q5.24-4.35,9.09-4.36a5.12,5.12,0,0,1,3.27,1.2,3.59,3.59,0,0,1,1.5,2.89v29.69a5.51,5.51,0,0,1-2.16,4.75,7.76,7.76,0,0,1-4.64,1.58q-2.7,0-2.7,2.19a2.87,2.87,0,0,0,1,2.31,3.59,3.59,0,0,0,2.44.91,31.83,31.83,0,0,0,4.11-.58,44.06,44.06,0,0,1,7.82-.58,58.12,58.12,0,0,1,6.93.5c2.76.33,4.3.5,4.61.5q4.11,0,4.11-2.74,0-3.14-3.94-3.13a5.46,5.46,0,0,1-5.49-5.56l.16-31.22a11.11,11.11,0,0,0-3.71-8.31,12.22,12.22,0,0,0-8.66-3.51q-5.79,0-13,5.21"/></clipPath><linearGradient id="Dégradé_sans_nom_14" y1="1300.04" y2="1300.04" xlink:href="#Dégradé_sans_nom_8"/><clipPath id="clip-path-12" transform="translate(-57.81 -985.29)"><path class="cls-1" d="M1068.6,1086q-10,8.2-10,19.71a29.64,29.64,0,0,0,9.12,21.71,30.55,30.55,0,0,0,22.49,9.12,40.89,40.89,0,0,0,17.58-4q8.54-4,8.53-6.84a2.62,2.62,0,0,0-.8-2,3.07,3.07,0,0,0-2.2-.78,11.82,11.82,0,0,0-3.94,1.62q-7.86,4.26-14.65,4.25a23.54,23.54,0,0,1-16.17-6.51q-7.2-6.52-7.21-14.7,0-11.19,6.84-17.28t13.25-6.09q9.27,0,13.87,5.13a16.29,16.29,0,0,1,4.6,11,3.1,3.1,0,0,1-.62,2.22,3.43,3.43,0,0,1-2.39.62h-24.65c-3,0-4.48,1-4.48,3s1.43,3.21,4.32,3.21h35.4a12.3,12.3,0,0,0,4.56-.58q1.23-.59,1.23-3.06a27.38,27.38,0,0,0-8-19.78q-8-8.26-24.18-8.27a34.53,34.53,0,0,0-22.45,8.19"/></clipPath><clipPath id="clip-path-13" transform="translate(-57.81 -985.29)"><path class="cls-1" d="M1131.31,1081.38a2.92,2.92,0,0,0-1.24,2.15q0,2.6,3.55,3.21t4.68,2a6.84,6.84,0,0,1,1.12,4.28v25.22a22.11,22.11,0,0,1-.46,5.71,9.41,9.41,0,0,1-2.25,3.24c-.41.41-1.49.67-3.24.77-1.55.1-2.55.42-3,.94a2.92,2.92,0,0,0-.7,2q0,2.89,4,2.89a53.12,53.12,0,0,0,5.46-.42,53.27,53.27,0,0,1,6-.43,35.08,35.08,0,0,1,5.81.5,33.5,33.5,0,0,0,5.73.51c2.68,0,4-.87,4-2.59a3.13,3.13,0,0,0-.62-1.92,4.86,4.86,0,0,0-2.86-1.29,11.87,11.87,0,0,1-3.67-1.31,3.42,3.42,0,0,1-2.2-4.33l.46-22q0-7.26-.15-13.68a14.73,14.73,0,0,0-.7-5.14,2.22,2.22,0,0,0-2.17-1.27,35.75,35.75,0,0,0-3.84.46,35,35,0,0,1-3.92.46,14.44,14.44,0,0,1-3.53-.54,14.38,14.38,0,0,0-3-.54,4.88,4.88,0,0,0-3.26,1.06m29.88,3.73q-7.08,5.57-7.09,8.31a2.35,2.35,0,0,0,.77,1.65,2.12,2.12,0,0,0,1.38.79c1.22,0,3.31-1.21,6.25-3.64s5.2-3.63,6.79-3.63q5.52,0,5.52,6c0,.36-.08,2-.23,5s-.23,10.63-.23,23a5,5,0,0,1-1.93,4.28,7.19,7.19,0,0,1-4.41,1.43,3.37,3.37,0,0,0-2.32.9,2.58,2.58,0,0,0-1,1.92,2.8,2.8,0,0,0,1.2,2.27,4.17,4.17,0,0,0,2.59.94,31.83,31.83,0,0,0,4.11-.58,44.14,44.14,0,0,1,7.82-.58q2.79,0,6.9.27c2.74.18,4.28.27,4.65.27,1.91,0,2.86-.82,2.86-2.44,0-1.21-1-2-2.89-2.47a8.86,8.86,0,0,1-4-1.7c-.75-.69-1.12-2.15-1.12-4.36v-22.34l.07-4.94a30.84,30.84,0,0,0-1-8.73,9.71,9.71,0,0,0-3.89-5.14,11.8,11.8,0,0,0-6.94-2q-6.78,0-13.88,5.56"/></clipPath><clipPath id="clip-path-14" transform="translate(-57.81 -985.29)"><path class="cls-1" d="M1218.62,1052.12a84.74,84.74,0,0,1-1,14.68,17.78,17.78,0,0,1-3.25,7.92,20.74,20.74,0,0,1-3.55,3.71,12.26,12.26,0,0,1-3.63,1.55,9.86,9.86,0,0,0-3.17,1.28,2.51,2.51,0,0,0-.81,2.11,3.21,3.21,0,0,0,1.08,2.62q1.08.9,4.17.9a35.77,35.77,0,0,1,4.33.12c.25.08.38.6.38,1.58v29.7q0,17.91,12.21,17.9,4.63,0,10.71-4.94t6.06-7.14a3.42,3.42,0,0,0-.79-2.28,2.33,2.33,0,0,0-1.81-.94q-1.26,0-4.93,2.78t-6.18,2.79a2.26,2.26,0,0,1-2.21-1.82q-.62-1.82-.61-8.31v-27.51a3.79,3.79,0,0,1,.23-1.73c.15-.24.59-.35,1.31-.35h9.66q4.79,0,4.79-3.37,0-2.89-3.32-2.89h-11c-1.33,0-2-.52-2-1.55v-25.81a9.41,9.41,0,0,0-.71-4.28c-.47-.85-1.64-1.28-3.51-1.28q-2.51,0-2.51,4.56"/></clipPath><linearGradient id="Dégradé_sans_nom_17" y1="1300.06" y2="1300.06" xlink:href="#Dégradé_sans_nom_8"/></defs><title>farm</title><g class="cls-2"><rect class="cls-3" width="89.76" height="144.23"/></g><g class="cls-4"><rect class="cls-5" x="92.23" y="70.88" width="86.79" height="76.31"/></g><g class="cls-6"><rect class="cls-7" x="187.63" y="71.07" width="56.05" height="74.04"/></g><g class="cls-8"><rect class="cls-9" x="251.78" y="74.14" width="129.5" height="69.89"/></g><g class="cls-10"><rect class="cls-11" x="402.85" y="36.62" width="120.93" height="112.59"/></g><g class="cls-12"><rect class="cls-13" x="526.41" y="91.87" width="67.84" height="59.65"/></g><g class="cls-14"><rect class="cls-13" x="601.13" y="94.26" width="65.06" height="54.79"/></g><g class="cls-15"><rect class="cls-13" x="673.46" y="91.87" width="67.85" height="59.65"/></g><g class="cls-16"><rect class="cls-17" x="744.7" y="77.26" width="71.4" height="102.31"/></g><g class="cls-18"><rect class="cls-19" x="822.13" y="92.49" width="64.68" height="58.73"/></g><g class="cls-20"><rect class="cls-21" x="893.61" y="94.42" width="101.23" height="54.63"/></g><g class="cls-22"><rect class="cls-19" x="1000.78" y="92.49" width="64.68" height="58.73"/></g><g class="cls-23"><rect class="cls-13" x="1071.95" y="94.26" width="65.06" height="54.79"/></g><g class="cls-24"><rect class="cls-25" x="1145.44" y="62.28" width="38.95" height="88.63"/></g></svg>